<?xml version="1.0" encoding="UTF-8" standalone="no"?>
<svg
   xmlns:dc="http://purl.org/dc/elements/1.1/"
   xmlns:cc="http://creativecommons.org/ns#"
   xmlns:rdf="http://www.w3.org/1999/02/22-rdf-syntax-ns#"
   xmlns:svg="http://www.w3.org/2000/svg"
   xmlns="http://www.w3.org/2000/svg"
   xmlns:sodipodi="http://sodipodi.sourceforge.net/DTD/sodipodi-0.dtd"
   xmlns:inkscape="http://www.inkscape.org/namespaces/inkscape"
   width="73.293671mm"
   height="34.774498mm"
   viewBox="0 0 293.17468 139.09798"
   version="1.1"
   id="svg8"
   inkscape:version="1.0 (4035a4fb49, 2020-05-01)"
   sodipodi:docname="Chaudhry_Group_Logo.svg">
  <defs
     id="defs2" />
  <sodipodi:namedview
     scale-x="4"
     id="base"
     pagecolor="#ffffff"
     bordercolor="#666666"
     borderopacity="1.0"
     inkscape:pageopacity="0.0"
     inkscape:pageshadow="2"
     inkscape:zoom="0.24748737"
     inkscape:cx="40.379232"
     inkscape:cy="233.97778"
     inkscape:document-units="mm"
     inkscape:current-layer="layer1"
     inkscape:document-rotation="0"
     showgrid="false"
     inkscape:pagecheckerboard="true"
     showborder="false"
     fit-margin-top="0"
     fit-margin-left="0"
     fit-margin-right="0"
     fit-margin-bottom="0"
     inkscape:window-width="1350"
     inkscape:window-height="728"
     inkscape:window-x="0"
     inkscape:window-y="0"
     inkscape:window-maximized="0" />
  <metadata
     id="metadata5">
    <rdf:RDF>
      <cc:Work
         rdf:about="">
        <dc:format>image/svg+xml</dc:format>
        <dc:type
           rdf:resource="http://purl.org/dc/dcmitype/StillImage" />
        <dc:title></dc:title>
      </cc:Work>
    </rdf:RDF>
  </metadata>
  <g
     inkscape:label="Layer 1"
     inkscape:groupmode="layer"
     id="layer1"
     transform="translate(-1.9747559,-25.275548)">
    <path
       style="fill:#005ba4;fill-opacity:1;stroke-width:0.388941"
       d="M 63.60833,163.91764 C 46.796789,161.36879 32.523314,154.1265 20.981538,142.28906 11.651503,132.72002 5.7488046,121.67905 2.8514504,108.37677 2.1056385,104.95262 1.9884195,103.226 1.975748,95.477786 1.9625179,87.649253 2.072622,85.98164 2.8542288,82.123954 8.5673232,53.92512 30.063127,32.827048 59.419891,26.604918 c 6.496935,-1.377018 19.898985,-1.766675 26.74704,-0.777654 12.693636,1.833262 23.399439,6.279367 33.643429,13.972074 4.35512,3.270459 11.91221,10.971409 15.49219,15.78709 3.24724,4.368074 6.68129,9.679766 6.42423,9.936813 -0.087,0.08702 -8.00958,0.326666 -17.60578,0.53263 l -17.44763,0.374487 -2.415,-2.048716 C 95.868013,57.263905 87.212112,53.795744 76.832347,53.392871 63.688064,52.882703 51.294298,57.867963 42.542331,67.18568 c -15.058712,16.03217 -15.266895,39.30908 -0.494293,55.26487 16.238413,17.53899 44.936501,18.85116 62.438922,2.85495 l 2.12494,-1.94207 15.15593,0.33183 c 8.33578,0.18248 16.24986,0.34034 17.58685,0.35076 1.33697,0.0106 2.43087,0.17424 2.43087,0.36403 0,0.59858 -5.63016,8.80088 -8.21635,11.97001 -9.7579,11.95734 -21.652,20.43938 -34.539009,24.63078 -7.780933,2.53069 -12.124386,3.17636 -22.392313,3.32859 -6.774694,0.10041 -10.347888,-0.0152 -13.029548,-0.42179 z m 148.96455,0.35279 c -12.68547,-1.55365 -24.90588,-6.2879 -35.50423,-13.75456 -4.49461,-3.16651 -13.00081,-11.59141 -16.10338,-15.94948 -19.27078,-27.06903 -16.72776,-62.351363 6.24313,-86.618526 10.07446,-10.642983 23.74983,-18.125696 39.13311,-21.412361 4.57063,-0.976523 5.50382,-1.04132 15.17701,-1.053833 9.28045,-0.01206 10.75243,0.07679 14.77978,0.891534 20.4352,4.134109 36.17318,15.207703 48.69088,34.259989 1.88499,2.869013 3.42725,5.363099 3.42725,5.542425 0,0.179313 -7.89605,0.326035 -17.54676,0.326035 h -17.54679 l -2.192,-1.885647 c -7.39257,-6.35943 -14.43465,-9.663537 -23.38536,-10.972305 -4.3359,-0.634003 -12.47655,-0.260972 -16.58805,0.7601 -12.48714,3.101142 -22.69084,10.84834 -28.63146,21.738546 -8.55152,15.676441 -5.77068,34.578103 6.95147,47.250053 6.73711,6.7105 14.92075,10.86523 24.79286,12.58698 5.14591,0.89747 13.13966,0.55329 18.33302,-0.78933 7.98911,-2.06541 16.77821,-7.45162 21.93349,-13.44145 2.21089,-2.56879 4.70899,-5.96801 4.70899,-6.40765 0,-0.12187 -8.40114,-0.22164 -18.66918,-0.22164 H 221.90747 V 103.45108 91.782831 h 36.62098 36.62099 l -0.24506,5.347943 c -0.80671,17.604566 -7.05541,32.235596 -19.12142,44.771766 -10.46747,10.87535 -23.53156,18.02936 -38.90126,21.30262 -4.10614,0.87449 -5.76618,1.0083 -13.8074,1.11299 -5.02706,0.0654 -9.75271,0.0439 -10.50142,-0.0478 z"
       id="path72"
       sodipodi:nodetypes="cssccsssssscssssscsssssscssssscsssscsssssssssscccccssssss" />
  </g>
</svg>
